<?xml version="1.0" encoding="utf-8"?>
<!-- Generator: Adobe Illustrator 24.0.2, SVG Export Plug-In . SVG Version: 6.00 Build 0)  -->
<svg version="1.1" id="svg5" xmlns="http://www.w3.org/2000/svg" xmlns:xlink="http://www.w3.org/1999/xlink" x="0px" y="0px"
	 viewBox="0 0 566.9 566.9" style="enable-background:new 0 0 566.9 566.9;" xml:space="preserve">
<style type="text/css">
	.st0{fill:#F5DE00;}
</style>
<g id="g14677">
	<circle id="circle14650" class="st0" cx="283.5" cy="283.5" r="127.3"/>
	<path id="path14652" class="st0" d="M283.5,33.5c-9.2,0-16.7,8.9-16.7,20v43.3c0,11.1,7.4,20,16.7,20s16.7-8.9,16.7-20V53.5
		C300.2,42.4,292.7,33.5,283.5,33.5z"/>
	<path id="path14654" class="st0" d="M460.3,106.7c-6.5-6.5-18.1-5.5-25.9,2.4l-30.6,30.6c-7.8,7.8-8.9,19.4-2.4,25.9
		s18.1,5.5,25.9-2.4l30.6-30.6C465.8,124.8,466.8,113.3,460.3,106.7z"/>
	<path id="path14656" class="st0" d="M533.5,283.5c0-9.2-8.9-16.7-20-16.7h-43.3c-11.1,0-20,7.4-20,16.7s8.9,16.7,20,16.7h43.3
		C524.6,300.2,533.5,292.7,533.5,283.5L533.5,283.5z"/>
	<path id="path14658" class="st0" d="M460.3,460.3c6.5-6.5,5.5-18.1-2.4-25.9l-30.6-30.6c-7.8-7.8-19.4-8.9-25.9-2.4
		s-5.5,18.1,2.4,25.9l30.6,30.6C442.2,465.8,453.8,466.8,460.3,460.3z"/>
	<path id="path14660" class="st0" d="M283.5,533.5c9.2,0,16.7-8.9,16.7-20v-43.3c0-11.1-7.4-20-16.7-20s-16.7,8.9-16.7,20v43.3
		C266.8,524.6,274.3,533.5,283.5,533.5L283.5,533.5z"/>
	<path id="path14662" class="st0" d="M106.7,460.3c6.5,6.5,18.1,5.5,25.9-2.4l30.6-30.6c7.8-7.8,8.9-19.4,2.4-25.9
		s-18.1-5.5-25.9,2.4l-30.6,30.6C101.3,442.2,100.2,453.8,106.7,460.3z"/>
	<path id="path14664" class="st0" d="M33.5,283.5c0,9.2,8.9,16.7,20,16.7h43.3c11.1,0,20-7.4,20-16.7s-8.9-16.7-20-16.7H53.5
		C42.4,266.8,33.5,274.3,33.5,283.5z"/>
	<path id="path14666" class="st0" d="M106.7,106.7c-6.5,6.5-5.5,18.1,2.4,25.9l30.6,30.6c7.8,7.8,19.4,8.9,25.9,2.4
		s5.5-18.1-2.4-25.9l-30.6-30.6C124.8,101.2,113.2,100.2,106.7,106.7L106.7,106.7z"/>
</g>
</svg>
