<?xml version="1.0" encoding="utf-8"?>
<!-- Generator: Adobe Illustrator 24.0.2, SVG Export Plug-In . SVG Version: 6.00 Build 0)  -->
<svg version="1.1" id="svg5" xmlns="http://www.w3.org/2000/svg" xmlns:xlink="http://www.w3.org/1999/xlink" x="0px" y="0px"
	 viewBox="0 0 566.9 566.9" style="enable-background:new 0 0 566.9 566.9;" xml:space="preserve">
<style type="text/css">
	.st0{fill:#F5DE00;}
	.st1{fill:#6BBBE9;}
</style>
<g>
	<g id="g14677" transform="matrix(1.1000003,0,0,1.1000003,-30.746624,182.77074)">
		<circle id="circle14650" class="st0" cx="379.7" cy="67.4" r="78.3"/>
		<path id="path14652" class="st0" d="M379.7-86.3c-5.7,0-10.2,5.5-10.2,12.3v26.6c0,6.8,4.7,12.3,10.2,12.3
			c5.7,0,10.2-5.5,10.2-12.3V-74C390-80.9,385.4-86.3,379.7-86.3z"/>
		<path id="path14654" class="st0" d="M488.4-41.4c-4-4-11.2-3.3-16,1.4l-18.9,18.9c-4.8,4.8-5.4,11.9-1.4,16c4,4,11.2,3.3,16-1.4
			L487-25.4C491.8-30.2,492.4-37.4,488.4-41.4z"/>
		<path id="path14656" class="st0" d="M533.4,67.4c0-5.7-5.5-10.2-12.3-10.2h-26.6c-6.8,0-12.3,4.7-12.3,10.2s5.5,10.2,12.3,10.2
			h26.6C528,77.6,533.4,73,533.4,67.4L533.4,67.4z"/>
		<path id="path14658" class="st0" d="M488.4,176c4-4,3.3-11.2-1.4-16l-18.9-18.9c-4.8-4.8-11.9-5.4-16-1.4s-3.3,11.2,1.4,16
			l18.9,18.9C477.3,179.4,484.4,180.1,488.4,176L488.4,176z"/>
		<path id="path14660" class="st0" d="M379.7,221.1c5.7,0,10.2-5.5,10.2-12.3v-26.6c0-6.8-4.7-12.3-10.2-12.3
			c-5.7,0-10.2,5.5-10.2,12.3v26.6C369.5,215.6,374,221.1,379.7,221.1z"/>
		<path id="path14662" class="st0" d="M271.1,176c4,4,11.2,3.3,16-1.4l18.9-18.9c4.8-4.8,5.4-11.9,1.4-16s-11.2-3.3-16,1.4
			L272.5,160C267.6,164.9,267,172,271.1,176z"/>
		<path id="path14664" class="st0" d="M225.9,67.4c0,5.7,5.5,10.2,12.3,10.2h26.6c6.8,0,12.3-4.7,12.3-10.2s-5.5-10.2-12.3-10.2
			h-26.6C231.5,57.1,225.9,61.7,225.9,67.4z"/>
		<path id="path14666" class="st0" d="M271.1-41.4c-4,4-3.3,11.2,1.4,16l18.9,18.9c4.8,4.8,11.9,5.4,16,1.4c4-4,3.3-11.2-1.4-16
			l-19-18.8C282.2-44.7,275.1-45.4,271.1-41.4L271.1-41.4z"/>
	</g>
	<path id="rect2741" class="st1" d="M172.9,223.6c-54.1,0-98.1,43.8-98.1,98.1c0,3.5,0.2,7.3,0.7,10.9c-37,6.7-64.7,36.5-64.7,72.5
		c0,41,35.7,74,80.2,74h113.8h6.2h166.4c41,0,74-30.6,74-68.8c0-37.8-32.6-68.3-73.2-68.7c-5.3-42.4-41.5-74.2-84.2-74.2
		c-12.1,0-24,2.6-34.9,7.5C242,243.4,209,223.6,172.9,223.6L172.9,223.6z"/>
</g>
</svg>
