<?xml version="1.0" encoding="utf-8"?>
<!-- Generator: Adobe Illustrator 24.0.2, SVG Export Plug-In . SVG Version: 6.00 Build 0)  -->
<svg version="1.1" id="svg5" xmlns="http://www.w3.org/2000/svg" xmlns:xlink="http://www.w3.org/1999/xlink" x="0px" y="0px"
	 viewBox="0 0 566.9 566.9" style="enable-background:new 0 0 566.9 566.9;" xml:space="preserve">
<style type="text/css">
	.st0{fill:#F5DF00;}
	.st1{fill:#6BBBE9;}
</style>
<g>
	<path id="path10011" class="st0" d="M424.6,115.5c-56.2,0-101.8,45.6-101.8,101.8l0,0c0,56.2,45.6,101.8,101.8,101.8
		c45.9,0,86.1-30.8,98.2-75.1c-3.5,0.5-6.9,0.7-10.4,0.7c-45.4,0-82.3-36.8-82.3-82.3l0,0c0-16.1,4.7-31.8,13.6-45.2
		C437.3,116.1,431,115.5,424.6,115.5L424.6,115.5z"/>
	<path id="path10009" class="st1" d="M202.3,202.2c-52.8,0-95.7,42.8-95.7,95.7c0,3.5,0.2,7.1,0.7,10.6
		c-36.1,6.5-63.1,35.6-63.1,70.8c0,40,34.9,72.2,78.3,72.2h111h6.1H402c40,0,72.2-29.9,72.2-67.1c0-36.9-31.8-66.7-71.4-67
		c-5.2-41.4-40.5-72.4-82.2-72.4c-11.8,0-23.4,2.5-34.1,7.4C269.7,221.4,237.4,202.2,202.3,202.2L202.3,202.2z"/>
</g>
</svg>
