<?xml version="1.0" encoding="utf-8"?>
<!-- Generator: Adobe Illustrator 24.0.2, SVG Export Plug-In . SVG Version: 6.00 Build 0)  -->
<svg version="1.1" id="svg5" xmlns="http://www.w3.org/2000/svg" xmlns:xlink="http://www.w3.org/1999/xlink" x="0px" y="0px"
	 viewBox="0 0 566.9 566.9" style="enable-background:new 0 0 566.9 566.9;" xml:space="preserve">
<style type="text/css">
	.st0{fill:#6BBBE9;}
</style>
<path id="path13694" class="st0" d="M218.2,140.5c-60.6,0-109.8,49.1-109.8,109.8c0,4,0.2,8.1,0.8,12.2
	c-41.4,7.5-72.4,40.8-72.4,81.2c0,45.9,40,82.8,89.8,82.8H254h7h186.3c45.9,0,82.8-34.3,82.8-77c0-42.3-36.5-76.5-81.9-76.8
	c-6-47.5-46.4-83-94.3-83c-13.5,0-26.8,2.9-39.1,8.5C295.5,162.4,258.5,140.5,218.2,140.5L218.2,140.5z"/>
</svg>
