<?xml version="1.0" encoding="utf-8"?>
<!-- Generator: Adobe Illustrator 24.0.2, SVG Export Plug-In . SVG Version: 6.00 Build 0)  -->
<svg version="1.1" id="svg5" xmlns="http://www.w3.org/2000/svg" xmlns:xlink="http://www.w3.org/1999/xlink" x="0px" y="0px"
	 viewBox="0 0 566.9 566.9" style="enable-background:new 0 0 566.9 566.9;" xml:space="preserve">
<style type="text/css">
	.st0{fill:#3E89B5;}
	.st1{fill:#6BBBE9;}
	.st2{fill:#3682BC;}
</style>
<g>
	<path id="path13776" class="st0" d="M278.6,86.9c-52.8,0-95.7,42.8-95.7,95.7c0,3.5,0.2,7.1,0.7,10.6
		c-36.1,6.5-63.1,35.6-63.1,70.8c0,40,34.9,72.2,78.3,72.2h111h6.1h162.4c40,0,72.2-29.9,72.2-67.1c0-36.9-31.8-66.7-71.4-67
		c-5.2-41.4-40.5-72.4-82.2-72.4c-11.8,0-23.4,2.5-34.1,7.4C346,106.1,313.7,86.9,278.6,86.9L278.6,86.9z"/>
	<path id="path13694" class="st1" d="M174.6,122.9c-52.8,0-95.7,42.8-95.7,95.7c0,3.5,0.2,7.1,0.7,10.6
		c-36.1,6.5-63.1,35.6-63.1,70.8c0,40,34.9,72.2,78.3,72.2h111h6.1h162.4c40,0,72.2-29.9,72.2-67.1c0-36.9-31.8-66.7-71.4-67
		c-5.2-41.4-40.5-72.4-82.2-72.4c-11.8,0-23.4,2.5-34.1,7.4C242,142.1,209.7,122.9,174.6,122.9L174.6,122.9z"/>
	<path id="circle8231" class="st2" d="M128.4,326.7c-7.3,8.2-26.9,24.6-32.9,47c-2.8,10.5,3.4,21.2,13.9,24l0,0
		c10.5,2.8,21.2-3.4,24-13.9c0-0.2,0.1-0.3,0.1-0.5C139.6,359.8,130.6,337.4,128.4,326.7L128.4,326.7z"/>
	<path id="path8238" class="st2" d="M218,326.7c-7.3,8.2-26.9,24.6-32.9,47c-2.8,10.5,3.4,21.2,13.9,24l0,0
		c10.5,2.8,21.2-3.4,24-13.9c0-0.2,0.1-0.3,0.1-0.5C229.2,359.8,220.2,337.4,218,326.7L218,326.7z"/>
	<path id="path8240" class="st2" d="M307.7,329.1c-7.3,8.2-26.9,24.6-32.9,47c-2.8,10.5,3.4,21.2,13.9,24l0,0
		c10.5,2.8,21.2-3.4,24-13.9c0-0.2,0.1-0.3,0.1-0.5C318.9,362.2,309.9,339.7,307.7,329.1L307.7,329.1z"/>
	<path id="path8852" class="st2" d="M173.3,408.3c-7.3,8.2-26.9,24.6-32.9,47c-2.8,10.5,3.4,21.2,13.9,24l0,0
		c10.5,2.8,21.2-3.4,24-13.9c0-0.2,0.1-0.3,0.1-0.5C184.5,441.4,175.5,418.9,173.3,408.3L173.3,408.3z"/>
	<path id="path8854" class="st2" d="M262.9,408.3c-7.3,8.2-26.9,24.6-32.9,47c-2.8,10.5,3.4,21.2,13.9,24l0,0
		c10.5,2.8,21.2-3.4,24-13.9l0,0c0-0.2,0.1-0.3,0.1-0.5C274.1,441.4,265,418.9,262.9,408.3L262.9,408.3z"/>
</g>
</svg>
