<?xml version="1.0" encoding="utf-8"?>
<!-- Generator: Adobe Illustrator 24.0.2, SVG Export Plug-In . SVG Version: 6.00 Build 0)  -->
<svg version="1.1" id="svg5" xmlns="http://www.w3.org/2000/svg" xmlns:xlink="http://www.w3.org/1999/xlink" x="0px" y="0px"
	 viewBox="0 0 566.9 566.9" style="enable-background:new 0 0 566.9 566.9;" xml:space="preserve">
<style type="text/css">
	.st0{fill:#F5DE00;}
	.st1{fill:#6BBBE9;}
	.st2{fill:#3682BC;}
</style>
<g id="g984">
	<g>
		<path id="circle14650" class="st0" d="M468.4,203.6c0,46.4-37.6,84-84,84s-84-37.6-84-84s37.6-84,84-84
			C430.8,119.6,468.4,157.2,468.4,203.6z"/>
		<path id="path14652" class="st0" d="M384.4,38.6c-6.1,0-11,5.9-11,13.2v28.6c0,7.3,4.9,13.2,11,13.2s11-5.9,11-13.2V51.8
			C395.4,44.5,390.5,38.6,384.4,38.6z"/>
		<path id="path14654" class="st0" d="M501.1,86.9c-4.3-4.3-11.9-3.6-17.1,1.6l-20.2,20.2c-5.2,5.2-5.9,12.8-1.6,17.1
			c4.3,4.3,11.9,3.6,17.1-1.6l20.2-20.2C504.7,98.9,505.4,91.2,501.1,86.9z"/>
		<path id="path14656" class="st0" d="M549.4,203.6c0-6.1-5.9-11-13.2-11h-28.6c-7.3,0-13.2,4.9-13.2,11s5.9,11,13.2,11h28.6
			C543.5,214.6,549.4,209.7,549.4,203.6z"/>
		<path id="path14658" class="st0" d="M501.1,320.3c4.3-4.3,3.6-11.9-1.6-17.1L479.3,283c-5.2-5.2-12.8-5.9-17.1-1.6
			c-4.3,4.3-3.6,11.9,1.6,17.1l20.2,20.2C489.1,323.9,496.7,324.6,501.1,320.3z"/>
		<path id="path14660" class="st0" d="M384.4,368.6c6.1,0,11-5.9,11-13.2v-28.6c0-7.3-4.9-13.2-11-13.2s-11,5.9-11,13.2v28.6
			C373.4,362.7,378.3,368.6,384.4,368.6z"/>
		<path id="path14662" class="st0" d="M267.7,320.3c4.3,4.3,11.9,3.6,17.1-1.6l20.2-20.2c5.2-5.2,5.9-12.8,1.6-17.1
			c-4.3-4.3-11.9-3.6-17.1,1.6l-20.2,20.2C264.1,308.3,263.4,316,267.7,320.3z"/>
		<path id="path14664" class="st0" d="M219.4,203.6c0,6.1,5.9,11,13.2,11h28.6c7.3,0,13.2-4.9,13.2-11s-5.9-11-13.2-11h-28.6
			C225.3,192.6,219.4,197.5,219.4,203.6L219.4,203.6z"/>
		<path id="path14666" class="st0" d="M267.7,86.9c-4.3,4.3-3.6,11.9,1.6,17.1l20.2,20.2c5.2,5.2,12.8,5.9,17.1,1.6
			c4.3-4.3,3.6-11.9-1.6-17.1l-20.2-20.2C279.7,83.3,272,82.6,267.7,86.9z"/>
	</g>
	<path id="rect2741" class="st1" d="M175.6,171.2c-52.8,0-95.7,42.8-95.7,95.7c0,3.5,0.2,7.1,0.7,10.6
		c-36.1,6.5-63.1,35.6-63.1,70.8c0,40,34.9,72.2,78.3,72.2h111h6.1h162.4c40,0,72.2-29.9,72.2-67.1c0-36.9-31.8-66.7-71.4-67
		c-5.2-41.4-40.5-72.4-82.2-72.4c-11.8,0-23.4,2.5-34.1,7.4C243,190.4,210.7,171.2,175.6,171.2L175.6,171.2z"/>
	<path id="circle8231" class="st2" d="M129.4,375c-7.3,8.2-26.9,24.6-32.9,47c-2.8,10.5,3.4,21.2,13.9,24l0,0
		c10.5,2.8,21.2-3.4,24-13.9c0-0.2,0.1-0.3,0.1-0.5C140.6,408.1,131.6,385.7,129.4,375L129.4,375z"/>
	<path id="path8238" class="st2" d="M219,375c-7.3,8.2-26.9,24.6-32.9,47c-2.8,10.5,3.4,21.2,13.9,24l0,0c10.5,2.8,21.2-3.4,24-13.9
		c0-0.2,0.1-0.3,0.1-0.5C230.2,408.1,221.2,385.7,219,375L219,375z"/>
	<path id="path8240" class="st2" d="M308.7,377.4c-7.3,8.2-26.9,24.6-32.9,47c-2.8,10.5,3.4,21.2,13.9,24l0,0
		c10.5,2.8,21.2-3.4,24-13.9c0-0.2,0.1-0.3,0.1-0.5C319.9,410.5,310.9,388,308.7,377.4L308.7,377.4z"/>
	<path id="path8852" class="st2" d="M174.3,456.6c-7.3,8.2-26.9,24.6-32.9,47c-2.8,10.5,3.4,21.2,13.9,24l0,0
		c10.5,2.8,21.2-3.4,24-13.9c0-0.2,0.1-0.3,0.1-0.5C185.5,489.7,176.5,467.2,174.3,456.6L174.3,456.6z"/>
	<path id="path8854" class="st2" d="M263.9,456.6c-7.3,8.2-26.9,24.6-32.9,47c-2.8,10.5,3.4,21.2,13.9,24l0,0
		c10.5,2.8,21.2-3.4,24-13.9l0,0c0-0.2,0.1-0.3,0.1-0.5C275.1,489.7,266,467.2,263.9,456.6L263.9,456.6z"/>
</g>
</svg>
