<?xml version="1.0" encoding="utf-8"?>
<!-- Generator: Adobe Illustrator 24.0.2, SVG Export Plug-In . SVG Version: 6.00 Build 0)  -->
<svg version="1.1" id="svg5" xmlns="http://www.w3.org/2000/svg" xmlns:xlink="http://www.w3.org/1999/xlink" x="0px" y="0px"
	 viewBox="0 0 566.9 566.9" style="enable-background:new 0 0 566.9 566.9;" xml:space="preserve">
<style type="text/css">
	.st0{fill:#F5DF00;}
	.st1{fill:#6BBBE9;}
	.st2{fill:#3682BC;}
</style>
<g id="g909">
	<path id="path10011" class="st0" d="M436.5,42.8c-61,0-110.4,49.5-110.4,110.4l0,0c0,61,49.5,110.4,110.4,110.4
		c49.8,0,93.4-33.4,106.5-81.5c-3.8,0.5-7.5,0.8-11.3,0.8c-49.2,0-89.3-39.9-89.3-89.3l0,0c0-17.5,5.1-34.5,14.8-49
		C450.3,43.5,443.4,42.8,436.5,42.8L436.5,42.8z"/>
	<path id="path10009" class="st1" d="M195.4,136.8c-57.3,0-103.8,46.4-103.8,103.8c0,3.8,0.2,7.7,0.8,11.5
		c-39.2,7-68.4,38.6-68.4,76.8c0,43.4,37.9,78.3,84.9,78.3h120.4h6.6H412c43.4,0,78.3-32.4,78.3-72.8c0-40-34.5-72.3-77.4-72.7
		c-5.6-44.9-43.9-78.5-89.2-78.5c-12.8,0-25.4,2.7-37,8C268.5,157.7,233.5,136.8,195.4,136.8L195.4,136.8z"/>
	<path id="circle8231" class="st2" d="M145.3,357.9c-7.9,8.9-29.2,26.7-35.7,51c-3,11.4,3.7,23,15.1,26l0,0c11.4,3,23-3.7,26-15.1
		c0-0.2,0.1-0.3,0.1-0.5C157.4,393.8,147.7,369.5,145.3,357.9L145.3,357.9z"/>
	<path id="path8238" class="st2" d="M242.5,357.9c-7.9,8.9-29.2,26.7-35.7,51c-3,11.4,3.7,23,15.1,26l0,0c11.4,3,23-3.7,26-15.1
		c0-0.2,0.1-0.3,0.1-0.5C254.6,393.8,244.9,369.5,242.5,357.9L242.5,357.9z"/>
	<path id="path8240" class="st2" d="M339.8,360.5c-7.9,8.9-29.2,26.7-35.7,51c-3,11.4,3.7,23,15.1,26l0,0c11.4,3,23-3.7,26-15.1
		c0-0.2,0.1-0.3,0.1-0.5C351.9,396.4,342.1,372,339.8,360.5L339.8,360.5z"/>
	<path id="path8852" class="st2" d="M194,446.4c-7.9,8.9-29.2,26.7-35.7,51c-3,11.4,3.7,23,15.1,26l0,0c11.4,3,23-3.7,26-15.1
		c0-0.2,0.1-0.3,0.1-0.5C206.1,482.3,196.4,457.9,194,446.4L194,446.4z"/>
	<path id="path8854" class="st2" d="M291.2,446.4c-7.9,8.9-29.2,26.7-35.7,51c-3,11.4,3.7,23,15.1,26l0,0c11.4,3,23-3.7,26-15.1l0,0
		c0-0.2,0.1-0.3,0.1-0.5C303.3,482.3,293.4,457.9,291.2,446.4L291.2,446.4z"/>
</g>
</svg>
