<?xml version="1.0" encoding="utf-8"?>
<!-- Generator: Adobe Illustrator 24.0.2, SVG Export Plug-In . SVG Version: 6.00 Build 0)  -->
<svg version="1.1" id="svg5" xmlns="http://www.w3.org/2000/svg" xmlns:xlink="http://www.w3.org/1999/xlink" x="0px" y="0px"
	 viewBox="0 0 566.9 566.9" style="enable-background:new 0 0 566.9 566.9;" xml:space="preserve">
<style type="text/css">
	.st0{fill:#3E89B5;}
	.st1{fill:#6BBBE9;}
	.st2{fill:#F4DE00;}
</style>
<g>
	<path id="path13776" class="st0" d="M278.6,65.6c-52.8,0-95.7,42.8-95.7,95.7c0,3.5,0.2,7.1,0.7,10.6
		c-36.1,6.5-63.1,35.6-63.1,70.8c0,40,34.9,72.2,78.3,72.2h111h6.1h162.4c40,0,72.2-29.9,72.2-67.1c0-36.9-31.8-66.7-71.4-67
		c-5.2-41.4-40.5-72.4-82.2-72.4c-11.8,0-23.4,2.5-34.1,7.4C346,84.8,313.7,65.6,278.6,65.6L278.6,65.6z"/>
	<path id="path13694" class="st1" d="M174.6,101.6c-52.8,0-95.7,42.8-95.7,95.7c0,3.5,0.2,7.1,0.7,10.6
		c-36.1,6.5-63.1,35.6-63.1,70.8c0,40,34.9,72.2,78.3,72.2h111h6.1h162.4c40,0,72.2-29.9,72.2-67.1c0-36.9-31.8-66.7-71.4-67
		c-5.2-41.4-40.5-72.4-82.2-72.4c-11.8,0-23.4,2.5-34.1,7.4C242,120.8,209.7,101.6,174.6,101.6L174.6,101.6z"/>
	<path id="path6920" class="st2" d="M196.6,275.4h70.3l-41.7,78.3h43.3l-80.3,147.7l28.3-115h-41.6L196.6,275.4z"/>
</g>
</svg>
