<?xml version="1.0" encoding="utf-8"?>
<!-- Generator: Adobe Illustrator 24.0.2, SVG Export Plug-In . SVG Version: 6.00 Build 0)  -->
<svg version="1.1" id="svg5" xmlns="http://www.w3.org/2000/svg" xmlns:xlink="http://www.w3.org/1999/xlink" x="0px" y="0px"
	 viewBox="0 0 566.9 566.9" style="enable-background:new 0 0 566.9 566.9;" xml:space="preserve">
<style type="text/css">
	.st0{fill:none;stroke:#3682BC;stroke-width:25;stroke-linecap:round;stroke-linejoin:round;stroke-miterlimit:15.1181;}
</style>
<path id="path16622" class="st0" d="M115.7,148.4L115.7,148.4l12.2,45.1l-45.1,12 M197.9,178.2L197.9,178.2l17.9,66.3L149.6,262
	 M157.8,154.9L157.8,154.9l17.9,66.3l-66.3,17.6 M283.5,283.5L67.9,158.9 M82.7,361.4L82.7,361.4l45.1,12l-12.2,45.1 M149.6,304.9
	L149.6,304.9l66.3,17.6L198,388.8 M109.4,328.2L109.4,328.2l66.3,17.6L157.8,412 M283.5,283.5L67.9,408.1 M250.6,496.5L250.6,496.5
	l32.9-33.1l32.9,33.1 M235.1,410.3L235.1,410.3l48.3-48.7l48.3,48.7 M235.1,456.7L235.1,456.7l48.3-48.7l48.3,48.7 M283.5,283.5
	v249.2 M451.2,418.5L451.2,418.5L439,373.4l45.1-12 M369,388.8L369,388.8l-17.9-66.3l66.3-17.6 M409.2,412L409.2,412l-17.9-66.3
	l66.3-17.6 M283.5,283.5L499,408 M484.2,205.5L484.2,205.5l-45.1-12l12.2-45.1 M417.3,262L417.3,262L351,244.4l17.9-66.3
	 M457.5,238.7L457.5,238.7l-66.3-17.6l17.9-66.3 M283.5,283.5L499,158.8 M316.3,70.4L316.3,70.4l-32.9,33.1l-32.9-33.1 M331.8,156.6
	L331.8,156.6l-48.3,48.7l-48.3-48.7 M331.8,110.2L331.8,110.2l-48.3,48.7l-48.3-48.7 M283.5,283.5V34.2"/>
</svg>
