<?xml version="1.0" encoding="utf-8"?>
<!-- Generator: Adobe Illustrator 24.0.2, SVG Export Plug-In . SVG Version: 6.00 Build 0)  -->
<svg version="1.1" id="svg5" xmlns="http://www.w3.org/2000/svg" xmlns:xlink="http://www.w3.org/1999/xlink" x="0px" y="0px"
	 viewBox="0 0 566.9 566.9" style="enable-background:new 0 0 566.9 566.9;" xml:space="preserve">
<style type="text/css">
	.st0{fill:#6BBAE9;}
</style>
<g>
	<path id="path13694" class="st0" d="M216.4,62.6c-62.3,0-112.9,50.5-112.9,112.9c0,4.1,0.2,8.4,0.8,12.5
		c-42.6,7.7-74.4,42-74.4,83.5c0,47.2,41.2,85.1,92.3,85.1h130.9h7.2h191.5c47.2,0,85.1-35.3,85.1-79.1c0-43.5-37.5-78.7-84.2-79
		c-6.1-48.8-47.8-85.4-96.9-85.4c-13.9,0-27.6,2.9-40.2,8.7C295.8,85.1,257.8,62.6,216.4,62.6L216.4,62.6z"/>
	<path class="st0" d="M227.3,409.2H52.5c-5.7,0-10.1-4.6-10.1-10.1l0,0c0-5.7,4.6-10.1,10.1-10.1h174.9c5.7,0,10.1,4.6,10.1,10.1
		l0,0C237.5,404.6,233,409.2,227.3,409.2z"/>
	<path class="st0" d="M496.3,409.2H293.6c-5.7,0-10.1-4.6-10.1-10.1l0,0c0-5.7,4.6-10.1,10.1-10.1h202.6c5.7,0,10.1,4.6,10.1,10.1
		l0,0C506.5,404.6,502,409.2,496.3,409.2z"/>
	<path class="st0" d="M313.9,456.7H121c-5.7,0-10.1-4.6-10.1-10.1l0,0c0-5.7,4.6-10.1,10.1-10.1h193c5.7,0,10.1,4.6,10.1,10.1l0,0
		C324.1,452.2,319.5,456.7,313.9,456.7z"/>
	<path class="st0" d="M526.9,456.7h-143c-5.7,0-10.1-4.6-10.1-10.1l0,0c0-5.7,4.6-10.1,10.1-10.1h142.9c5.7,0,10.1,4.6,10.1,10.1
		l0,0C537,452.2,532.4,456.7,526.9,456.7z"/>
	<path class="st0" d="M419.7,504.3H244.8c-5.7,0-10.1-4.6-10.1-10.1l0,0c0-5.7,4.6-10.1,10.1-10.1h174.9c5.7,0,10.1,4.6,10.1,10.1
		l0,0C429.8,499.7,425.3,504.3,419.7,504.3z"/>
</g>
</svg>
